<?xml version="1.0" encoding="UTF-8"?>
<!-- zopnew/zop-looking-away.svg — side-eye + flat mouth + a bead of sweat -->
<svg xmlns="http://www.w3.org/2000/svg" viewBox="0 0 395.32 395.32" fill="none">
  <path d="M178.1,26.44c1.39-5.53,10.07-5.53,11.46,0,24.18,96.14,68.9,141.13,165.61,165.5,5.53,1.39,5.53,10.05,0,11.44-96.73,24.37-141.45,69.36-165.61,165.5-1.39,5.53-10.07,5.53-11.46,0-24.18-96.14-68.9-141.15-165.59-165.5-5.53-1.39-5.53-10.05,0-11.44,96.72-24.37,141.44-69.36,165.6-165.5h-.01Z" fill="#FFBA03"/>
  <circle cx="171" cy="151" r="11" fill="#1F1F1F"/><circle cx="167.76" cy="147.76" r="3.6" fill="#FFF"/><circle cx="173.52" cy="153.88" r="1.62" fill="#FFF" opacity="0.85"/><circle cx="243" cy="151" r="11" fill="#1F1F1F"/><circle cx="239.76" cy="147.76" r="3.6" fill="#FFF"/><circle cx="245.52" cy="153.88" r="1.62" fill="#FFF" opacity="0.85"/><line x1="176" y1="240" x2="228" y2="240" stroke="#1F1F1F" stroke-width="12" stroke-linecap="round"/><path d="M108 92 q -12 18 -12 28 a12 12 0 1 0 24 0 q 0 -10 -12 -28 Z" fill="#6EC6FF"/><circle cx="104" cy="118" r="3" fill="#FFF" opacity="0.85"/>
</svg>
