<svg width="342" height="483" viewBox="0 0 342 483" fill="none" xmlns="http://www.w3.org/2000/svg">
<path d="M207.769 75.1287C210.514 70.1282 218.907 72.3227 218.853 78.0268C217.914 177.16 249.797 232 337.183 280.051C342.177 282.797 339.986 291.172 334.287 291.121C234.542 290.218 179.887 322.419 132.182 409.319C129.437 414.32 121.044 412.125 121.098 406.421C122.038 307.29 90.1636 252.431 2.78389 204.4C-2.21142 201.654 -0.0203882 193.276 5.67961 193.328C105.415 194.227 160.066 162.024 207.769 75.1287Z" fill="#FFBA03"></path>
<path d="M149.714 147.994C145.017 154.284 134.83 171.216 131.66 188.631" stroke="#1F1F1F" stroke-width="13.0344" stroke-linecap="round"></path>
<path d="M187.967 158.002C183.27 164.291 173.083 181.223 169.913 198.638" stroke="#1F1F1F" stroke-width="13.0344" stroke-linecap="round"></path>
<path d="M132.216 245.777C166.928 253.553 190.008 247.657 207.92 239.645" stroke="#1F1F1F" stroke-width="17.3793" stroke-linecap="round"></path>
</svg>